<mxfile host="app.diagrams.net" modified="2020-04-21T10:22:52.383Z" agent="5.0 (X11)" etag="K8jr1-S0dKHqBtRdMrub" version="12.9.14" type="github">
  <diagram id="NHp3oAHKT3f99LUaL_mA" name="Page-1">
    <mxGraphModel dx="803" dy="444" grid="1" gridSize="10" guides="1" tooltips="1" connect="1" arrows="1" fold="1" page="1" pageScale="1" pageWidth="850" pageHeight="1100" math="0" shadow="0">
      <root>
        <mxCell id="0" />
        <mxCell id="1" parent="0" />
        <mxCell id="iV_EhUxX30mRoUm4ifhz-21" value="" style="shape=image;verticalLabelPosition=bottom;labelBackgroundColor=#ffffff;verticalAlign=top;aspect=fixed;imageAspect=0;image=data:image/webp,UklGRnIKAABXRUJQVlA4TGYKAAAvf8AfEBWHgrZtpIQ/7Xa7h0BETADOwUg1AwYGGH41DqzBJS7xOjsgUZ2DHG3/FEnhfK7rMt3/X+F+gz27Vf3//6reuFM01IjNkV2oEHc7ACGZZeTufgCHyCUkc4/cHVKXzB+4kSQ5cmD6+wANEmfX1T17PP40cE5kQIInkCRJcqTsPzDunLTW0FOVGTkCzf9fgq0EAADItrFt27Zt27Zt27Zt27Zt297NLIzcto3UQteBPUvjzkw+IEXbNlVvuil0gXnnFOXfBaS6rgvo1ptvzpzvDPhx2UIZHFf9Cyh5+lSZXKuiymRZBXRtewXslCEbKLMjG7ZuYtt2lSMdHSjIQQUSMjVleu+efd7r3Eay3TbIKPx3D0Ym8zZSG1T/BQFDSA4AEHIya6O2bdu2jrZt27Zt27aNB9i2W0hu2wiSaOS4O66Z2eraekLe+EylAeQcUxeWok5xdGGjNEAXL+YourC5SImjCxulAW42L0bRhU2TEkcX7jGaSgMyOtrMcXRhMkrJUXRhj9KADgyM5ji6cH+CVNYcGAiyC39GI53S/neRvo/uqxvDBhEC0QGyB3gF/AX8ofiFrF2q7kybQpOlODySS3uB+0EWFtM5HXAGAOtNisG6GUFOoKR2vxKDFy5eNGTaixxP2osUogIAAEA7tRPwH1BMQxP54KI5F11P96MLWEAc4BcAdFB/An7AiSzSH7Tyfbhy/7W4mJxO96tXHCNPAEAXlgCGel0+YirTNCe7ntHP+MQIOCJBr8joaOn5k3N2O+a6GAEfEmL8WJhfGBQZLT3+XA9kLMCxjNhM8X7R+yW22ho0Olp+/Lmdmt0LDGBESnMzpfuKf//htR4hT5M/lVI3DfLW8jGavUzPc+EBvikQAW8rAianJEeDGAHJOiuwJ8gL1RYVIuC3SUiCJTedQxUwAvAJltxIq0pE2DPB8kuLCACu+mHUQU0jOWoRIwWLQMkBRWpEKBkyfOZOiCk1IqAv1Nw5Qo0IWAg1dwKu1YjA26HmTpBzNSLF66HmTljbajRTeirU3EnRgBrNVGoMNXdSOkONZlRFh5o7qQ19NZqRoRRq7ix/vsO8pQXFX7pMK3ywuZPMgBLNIA3ec2fl7REK8qaBdApILfCYkScA9ZvIs3bV1shO6XeUiKbD0Omj6OcYIxmkR3H61KYxH4xI6nYtlX6HgdfJnTTd0VNzDcXfGtpZCtyCLCyOM1exBg3wrAPg8qfDR7IMDqpuo/hXQ33L4FR1vxnU8uBX8XGJhqociv/a7QAAcsqS9oFhv3Cmw02FCMfc7qP87hEnba6gGLDr22JwVvdpQxJS2J4p4Fpz2wEcFNpCZ71v/q/VALBZs9tBWX2kwyMTxUdufYeq1plEVPyr10FH5TuOHYrfC0txW2VSUFMAAACkrT5ofOFZztFH9m2yPNIKKHq9xqLSHs8OxVfpcktslQkSI88eZHytPgrLNfFtnj6ydsteb7HYnL/LtUPRhFVmq4M9pJHbpKy2+4B7kqsvLbeyKcyTNN+OwVq5bR4DLMggZ7RIf3BWH8kgPb4+eBbjBj+Klvh2QA7HWvV1+LtBpVKjBEDxfyut/w8R3vH17WdStR+cAjvRYAnHKkrpcIo/ufoA/ynxcCx3ydSyEh/IwsLLncgUJilrEGmuRdxYkoAVnj5KZkkIuhZ7uDIlPsgJ4uVOsqYlVRVkz1kAHkMYAE7d+sjZh6PhrjUU9iU+IKZ4uXOnpKoa+SejhP2HrGDkfIhbmz6KrwzKMpJU/VvTrm+pxAfIFSt3DjreQwP+iarqClYFfdztBl7y7DDO4BqITrI6qak2bUpLezkc51VpSmGLQsLM8Zzc2VuvKLKinjRT8AKBVMsamY+zrNwJ+C6RGZPjFwQP5EXPf4giAN94uRNwJAHw6oM8B7xJfMzj5c57ApmxyQt5k8THPV7upMRMIDPC8fRCTsFL4gOyKS93Vtcn9ky+TMBnWjM1y2LRTIqJonZ2hJUKVIHQAtzbj9AEKINJ1g47DMsu/Cci6624KGDmfmbuBOSyZUaQBjfzleCarI+QA9gH/NsD+APsjby7WP1JGLmR74NCDjd3XgV85coE/KleB52LonbyNxEehBXAvUald6r6Pb/F9XGwcnsgZAc/8mzLzRTIFOSw8w54WWpEW0uIDSq+HIBAro+0lZ0gdwLn8mQiXWdHpUgB1qVmAKtFyxLJGkA9zwfcmZLcmTweIHzjyFy6X7sa5w/WVrNoheRmr9QO4BdQ3KJGsJ5ROg5rP2cdiMrmyN68UVXgheg6esfpHzdXXxjVLL0IwrE4CdBhe4q0bR2N14R3HNdkJ4D/aS9v8Ys/xFyAIfuAmC6MLWytCRwK+BFHAXyr2N+6DigiB+wD0F+1nzg13jumFXGQvJ31BzmPRpR066RgfZAbSmCESnEYQNGKRQJZ19HtxvJndtQfO3+aSEztxd/zQ6bDkIjxoiQr7fgG64i51WirW5wGoa1xSTB75/GrFw3ed+i53/eOXY5HZHrJY8JDu3dUuEKcB6gksHvH3eIhsAKCund8ts4HwJcmS/m8d5yhBMz/JBzItPPI1I3XhNtq7jogXgI4WG/TpSsoi+zoF/aNZK4mzNW943pY5jCNXwDvtIECrhBWETIUNmzRCWPQqFQ8RUGBQX07XsUmMNlAa4BrwK+IXEDY044GNYrp+tr3jovfCYXgBpg4JbasaxuN0XjW9PryDRQxosrc9taPtGNMgctcnZF17h27LgFOpSIqNBt1noi3fDZqAwalIgcUttnBvnfUlvoXqUx7qjjRSE88BpYGwZCqVOZLd+KdOzURzvh4AXNGn88+AWaMhQF2pDK9uznnzj93OLWB7YkalhOvGaJXfczpA9PcqgPGljvNvw7Wl2vd/IKcAMr8AuTTflP0hU04eTmvbSSlKf1+RMPCATNtPO/++wW4makfbKAzQFvCCcLA8uUGttOOLGHRJU/jmCme0z6tS3qEFVjpVgrbCI8qcxOEHN+0I4N2b02WFF5gWVu090L6nwf4ZQcB7PsG2KDNvkV3BOCb+X/CuTIVZwoP4gXjvyvx7VurCiGnlL4ILwgZJWsAH0zAeSmljImid1Ig0dQJUM20ZY0JuEqYNOFIe4Z2dvTvK0HsJ8ycNKw6zIXYmPYMWKn+aYgm27gAz6vq/WUXJWU6qgBV+KcduUQnjISbffWOlLCEBzpd9w+4iqiBEhtwOR3KH7LdJv3+AToILCG298tWG1hpAKloC5uwtarR05bV7R9CP9HdXMJO0Rb2nPbVklPwFEUvJ4BzHTmFD+CSkrYC+FrV6XIKh+7m5tufEiCSr0VH6hSOrEt8fCPzNMLXohNVOPJADTczMfJA5PJA7AZid4QMxy5PRC6nyOUUuZy8yohGQnju1HZ+pBSNYjWK+/1784gtr2jHDEWLTMZf22rxi78g2Nbh494xDF7vHQPh+96xOwC+7x1D4Pu/wxB4/u8wCH7/OwyDz74TL1089Z2Ehae+kwDR/u8wox14P37EPOP9h41A92XWe08z33mb+b7jzHddZ7/nXDAi7JID;" parent="1" vertex="1">
          <mxGeometry x="60" y="160" width="80" height="80" as="geometry" />
        </mxCell>
        <mxCell id="iV_EhUxX30mRoUm4ifhz-22" value="" style="shape=image;verticalLabelPosition=bottom;labelBackgroundColor=#ffffff;verticalAlign=top;aspect=fixed;imageAspect=0;image=data:image/png,iVBORw0KGgoAAAANSUhEUgAAAOEAAADhCAMAAAAJbSJIAAAAkFBMVEX///8aGhrz8/P09PT+/v4dHRz9/f319fX8/Pz29vb39/f6+vozMzMAAAAZGRmDg4Nzc3MJCQklJSVXV1fPz8/d3d0QEBAvLy8hISGenp4oKCjp6enGxsZ0dHQICAgUFBOMjIzX19ddXV2urq7j4+NCQkK4uLhMTEx8fHyjo6O0tLSRkZE3NzfBwcFAQEBra2vqwuYjAAAT0UlEQVR4nN1da2OyOgwGRK5DnfM22Zm7uLm97vL//91pm6RFoFAYTBwfNsDY5mnTPmkT0LLgcN3CiaU76V+22+LEEQRw6WZO4BNPnXj1sp5e1tLIkkgT2SZqwhFHcNuNY7jtxTHKRUHupJFsXCtLxVkkImUDrWwTNeGIQrjtRiHc9sIIawmxiJhOMrIuyVp52YBkUSNVXKQpziqpWiebrbqgZpCTFaVGI7zyR1BLMPLhm7GDtUQOFhGS7GiEhTuhpZH1Udarl5VVe1R1oK+6iZrCZgk3U7r+m05e1vG1AJ0mAHWyEckWqx5pq5aywmbJclUzOp0CzPS2TtbVN0YRoK+qrlVTWLGLc487cgoAw9w3Gyht0oOhApirOihUrdpWydZV7YItImtke+V8JloEqDXRejVl1blvGhj3hYxBksVa6k204zFYYqIGY7CopiHAbieO/sZgCzWxlrPRRAVnVpqosZoe/+dG/QA0cAoa0UQrgNxtdOOwlzH4UxMtAGwxBoHrg7h2/u14DFa5aiZtW6emqtrnn7i4yPiDNIGuLTL+hbhqrdSkb3ag9DBctbyadPVHXLWMbJgFeIYx6LQA2EZN96SWv+OqyaoF43vhb9HEr7lqsriAb+i4cfRXVvRFNZHxh+yqNVnRF9VExidFKuxkCDTxg5GUu8IvWh5Ct2iv1Yq9nIgb50WUrJuXLYjoZYtVB/mqDdTMA4yt5fuUHW9vUzjopHCj7MRApGfZ0xvHu8DKAQzSp4Qd99f39wmeiP/Jdf7kXp20kK0SaSJbW/X61TrtwX1yP7Ht8diGw+Ckc9lui5skzzA6hAWz/rxa9aH0+QCOx5NkTwOYBwhek78G0LaTKYZ7vIhNS7P7PwfQ3r0EyPj8z83qnEr3AtDezVMRkQGeulnhx5MJq24iDmbK4pA3iifjFrJ257KFTxDKPA3UbHqzw7vJHziwJydzx8oihLvJQnoG5DTEdIeiqx4xaRDrZF0KwAZRQYROIinrGst6UlZbNTtJJmD581EW4Qq78A6r9cnJG9Vu5lY62wHJyl01VJFEYiquEKf1KlYTSrZETYGQGW8GYRQgwnGyIKUvdLnEZRPwXXYCoQu3sQ/HiLD7OMYvrehBNoHJRiBExo8BIbstEF7sih5lkwnwIUMohqlgfI6QT9Ec4aUFXwpVJzby4SgSM94J4zOE/e2q9QUwr2YCzMcZX0SehBwxPkN4acGXopoJ8WGaCSEyhMiH0SCCLz+pegR8qGP8u+iCaQIAxlWMbxPjX1rw5US2hPHDPONfWvDlVDbL+JTXlmP8wQdfqqvOML4bU17bCeNf7hgE2Qzjq7y2LONfWvClIJvQCtiJVF5bhvGH7aqZOFGK8cViC6LcGcY/q6umK65JY4SK8S110BqfMf75gi/dpPOExPh2GeOzFXBcB3CYwZeM8XjI+Fk+dL084w+KJhqNDtZeRcZ3R16O8S+UJlDNLONTXluO8S9qRV9UM8P4lNfmEuMLPjzDGOwmuEyyCe55z31PRbmR8YVPM6gxWL+iL6qpGD+EKDcvPMP4Z1nR65RutX+TYXxxnWN879dW9L2MQV5uNePfRRe2oi/K+pLxT1bAkvGDHwE8u4nyjfISxg+CPOP/2oq+45xBoSYyfmbP26M9b8n4l7SiL6qZZfwA8tpCYnxYAQ+CJtqNQSGbYXzKa7NOGf9yxyBUrRifMtmtU8a/TFcto2aB8S3rhPGHtKJv4Kpl1ExklBtFACExfvBrK/puXTVVtW7Pmxg/bDMGfz34UgUwLGd8GeX2jAG2C77086DqiZoljB8rxl8YAxyWq5aVLTJ+kI9yXypNYNWC8U+j3NHpnvdFumoZ2Qzjq7y27J73ZbpqmapVlDsujXIPYUXffgwKhCrKzUUKUe52k4ycqyOSzSlt+fkxKGWLve377XvQitUKGKsWCOWed1xvJ7HvkSL4dfXAnwSIhccjWnBi/cqchaxrqXdZyMagVbismj9I6JYCLFGzNspd1YNPyYodu+QBATriOpnhM4x+suPX18xdOopPVvcHbIz45ZpffvjYg4dkx2WZzSzgS6tk70PVD+JGssSqb1lJTDY5lgEsU1MT5ZYIrQqA1vP8ih/rJ1HLyPrcwDWIuIuxuNzOgmA/EadXH6Id3Wi5FpebR8i9Cz7g4zlrcjzdfGIpN0J08w9jRP9txcfjpSlA07y20jG4nJNiQBNTqH2yF7LxO3w8/+dZ3staKsaKi7At5pBebj2C5HZqOdYbFDJ/h49S2UwCYAQFrQ+BsVNgkNemn2QOoPduD8slhLF5FbIuNveW73E9wPnmWbQXXW7foDw0hvEnoyoyhBn09itevsAoSm344oO515ONcpfntVXMoqT3Z8xnxj1cXW3/47KRdZWx4bsxacYNIgDTY4coLsB+W/P1TbSD84OoOsAqrjZLUSMC3jRY9GSj3Pw7Xj7KXQEwwPbeHkXCKtbO2lvIon2BJTofCFdQSoqSvPd5cQB4PRPz0BOiT0Vvf+DV5jnbpl/OyNhvlYwPUe6yvDYtGY3icaabaAQxxMuQ1XIHMFZiIzb4Bk3XDucWags+gbDJIJUX/MDhO35krENWiQYdx9AWbFSaez31eW1VrhrqDcZ2INObP/Nqj3NpbVYY41CzH/nlVLbFjD+PtLDRSEW5j9j37zGrWrbF+iNmE20EkptX17QHdXltKspd7cn8QzPls+ceZ1amzZuytvmtaAx3TxMr/+jjSh6czqHX0BIiB1pq+8ZpVdoFm6EDJ3gEhBPHHGAt41e7ailMCxvOm7yX1k/cjNYH9pn/Bcos0TuBiXbLmXrPv/Ux4zfmvE9h0gV+CB0ca+sbrj1HuxZdPn9mjQEtim1h5lGWZrK7xbw23WrihjrKi3lzbx+EeuM9kSUHC+4X6s2N9h9vi5vXOfap9wWFLC1oDJx31w5Oz/MFl1x/W9SlSKNGi56gjPH9fJS7wqU/gt7f1sjhes6fhd58zoARxOgB/Uv0cHbslPfeeia058ziCENgMzAqjfPu5BFHwQZGOPMr0BAmqTHA2DCvTbuaiKC91wcnEo7Z+E4AYc4J9tlG+u7eGIeTFX0Ic3U/rsA5gTK4/WJjwPzFe4r3GYM+42UxZnGAVW6MTZSrmY9yN8lr4842WNh6j829d2zQOwY1P1L5Mji4sfkMHrfiP3hEzOOBicZeyNUEzLvcb+EijCeEpTBXCbw7MXmZ76EW8to4zNO8tsoVPcwS4wU092EEI3OSwoy4/g5Ikfh5g10l7He7BHeFIZ3BHKSWS48b7KrlBpAJamWGAZbPndsGGw+ZPW9NXlv1ih4qZfPgOmudm08H7gOJC+8EfBw2ZKfC9OIA9H6AwbWdBlJpF6eeWNjFLvWWOEmJsrlhd5rXVrNlkW7BooQ7yZc8AvL8fSmYy3YIoEfroIPo5e2bazkrmPkF8s1rJM0O569JeoS2GKEr4whDZ23iy8UxPVClB/iTvDYoHa1xwYFxr0T4nOuZcFlhTqANKnByPpYfV7j++IBrsMnUU40BTs5mwRFtp3EETtB8IYDKySudvrw8/QOA2qzPxnlthV016xYsRzQ3BwTrhq/3rSQu2nTC4SXmkR1X6QFkRAEziwDyDT+kPejcAH3c7fFFTMcOTF6LyXa9Xu9m1VPFyC3Z8/ZM8tpoVy1Cp/JAkxw6nYc1EZfcVXO+YAJZU+dCPwtJ9LpJVsxfQhK8VUd0/0Hwywwmrxi9YPu5ciTl8tpcqMWty2vLvk/Gkp4jsx++bQRLqvUVOjBq2zCYbekTaIt0TtfodUvZZ/kJemjSq6e2UGu1m5oYUTGvLdTmtZVv/MqFApvwuR+YSmU4jszGbywXCsJfYa4FLQWxTyVAdznPlmGR78SPHRqbqjbNAcypWRLlrstrywVfPscEcAYicgHPlngn2/Fy4bv+4ot5x7olIMLrzobEJHbhrVrBHVWCfeoFctWxdnQAoermeW354ItDam5eIYOK9OZe92nwhWyNL2d5cQvSm5P4SWMcqYwvUfUokm3xDFWjAwH0qOkHULNxXlsx+ELL4EkKO8CkN+P/XPCFsDOuEMWhj80oIx98WWxUWwhZqsTGyctKV1jWrQYgjo5MXpv4BHQuyWvTB1+s292cH5uDT16EuJ6v7uJc8OUx2cJHKW7zf4+3/M7umN+GCK7m4pPrT1T6fTXndzY3LrXt80RMwmIZqZ8qXLUCNstrKwm++PtbcRxf0dEI3uHGberngi/BET54pjjGHd7YF3ZL/h3FR8cRrbXZOb9xp4zn7uZq+/JwArBkqtBEuXV5bRUBUPmAeEi+Q+Bnx6BQBL0Ej2hVPl1efDMevTlHUjBtPqnX5fr7NLQ0ABWbVee1LUjpgomeP0/GLIxZGeWWjD/MPBnTOG2jvLbffki5k5Q687y2YeXJmKTzQNX6vDYch4PNkzmV1aspGf/07S2FvLbKPJkWMfqf58mUypaoWR7lls9yB/U0ca48GQ3AvGzdnnf4gzyZs7zItpgrUZPX5ua+OaA8GbN0nsgor20IT760TOeJiPGr394ygCdffpCvVJ/XNoQnX36SccYZ367KazvnQ8qNAObnN9O8tsuliZIot2B887y2c6RTGrtqpXltuB5DhDiXxu1oos6T+b03M5nntV2Yq5bpB6O3t1zMGCwzNJO8tmGs6Nu+cqMkyl3IazvbQ8qdZF4X8tri+ry2C3DVMmrWvr1l6GNQSxMkUshry0W5L9RVaxDlHsqTLxqAOldNFRfVRbmHbaIVHiUBrGT8STGvbWCuWgXRy6pLGN/V57UNfUVfpmbJ21v0eW1nfPLFyFUrrbpJXttAx2DNXFiS1+bl89qG7arVsZlkfN+tyWsbcPDFqlKzLsp9EcGXoquWeWyq5u0t7kUEXyp60Kp9e4se4KBdtQxd10S5Y903f99VM1vRF9Q0y2sbKE1oXbUswLK3t5TktRX7XjZjFwDDRjOueQ8KNUvy2nzF+OIJF5d+n6jyBf3w36NPqmQ9rUhetknVOtmqvDZ79fTfbDb7nvG/2ZOZOqFPZnqRgmzHxVXL/rcqRLldlddmr67vr1erazjk/9zJfeGkIFIqqxFpIltSdUHWrmJ8WHbg/y5/EuUMv9yyK317yx8CqGH8PwSwnPH/EkBNXtsfAqjJazsjwM4boyTK/ad6MBPlzuS1/SmAnPHjYl7bHwJYktf2xwBq8tp6BzhZES/1DVAT5e4Z4OQ+OdxMcIXaM0BNlLvnHkz+447Ue1L2g6BdA9REufsFeP0dhJyBb5P+e1CX19YrQDuh9+9s7P4Ban6VrFeAkwSf0LGeVv0DLM9r6xWgPU7QDQ7zw74PgJpfJesV4Bh28gI/xR3NPntQ9/aWXgHaq6+A24z1fd+83OZVl+e19QqQTaYfd376+JQ0VbqVw3XK+Gro9wmQWU6yspPGK7V2HuXkKlIAg9vkVwByXSctym1V9fW3AhjS2O8fYAul264Jkk85zfBfcS33pC4a4JNYOUGUm/PFMamYTi8P4C45sFHoqrw2dixuevpxZSONVh1XvXnn2xeZt7cIuPF+yY/Hx+Xy5KRwo0ykRHaRGPfK6nuvKa5Wh1JZfGFDqPLaVEjMCnGO9ejN3gG9XzQK0a2kp6GlbECysZLlD3Ibmx3Me1SuW6g61latV1M9PnwCsMsA6GdiPK5WN6YR3uZqwlUveTLPifHEsfsK3AbPr1RknGkA9pMn85AYz4yTSer3k/UJ3+z41+uolsPOFKBI+6zLk2llovSrZL0AtJAtjDgzebew3E7HIP0qWZMxaJxOaS2SAkAdYnu8mpkCbJT1qaLcVmU6Zas8mVjrzZe5ABM7MAPYKIPFV1HuHvJkgpf8/p2+B8fw9GrHJopDGhm/83TKaNls4/d61v3jHfROEWOlG6U0W29JE4D2JEn9frI+WzSNSa6atcfcK0OAtn3/ZhkAbJ55DVc95KqJ3aYmSyv7ellXdRs1Ma+t+3TK46nXXduDfH3B3wdWTRPN1RSM74Vdp1MKl7T5IjZ5ibpOdFR5bU2bpqaW3J6IGUAOMY26MVHqhxPG7zDr/tgOIN9PTZtXXSGLjG+ktCFAYaIPbQEy522+L1X6Zw/o1CvdbAxO24xBkl3t0s6TjTXfbF3Lbfse5H9WH07UbeZ1hwCFnex/GsJO3uS7luufIWsPsP2TL5+Yg9yuB23hvjVu2woTxby2Lp98mdKW5f319X3hBP5nTnIi7Jh6pgANHpKTeW21ABtsjOw/348P0+n07W0KR+HkreQE/j/cvuZ78EdjUEW5uwMoDcKiTPqSbP581r1Fn5BsQ1dNy2Yqyl2j9K8+IGl1NgYjX+W1De7Jl073p38OsNlrxxrti3bhUbZWur9fEey0bTW1/IEx2J2JdvqQcvdjEPPa+rGTIbxEU+a16ZT+7YeUuzZR9atkmlp++yHllgtePcATxh/AQ8qdx2l9ldc2jIeUu1nRZ2QzMdKBPKTcy7PUvdZyTlft5wAbuWoGb0f72a6aOcALc9VqTVTlteVq6Z0mfuBsG41BgiR/lSxfS08Af3sMeid5bQOhiU4jDH42r+0Mrx3r/5UbpXltF0MT5v3QD8A2rlq3NJEDGJ784Dn/Jp1E9FsyEf4wuOuHBdm8SIg/VuI1k7VqZYvFFdXMVQ3fjDCEKHcWAzqJaeUR46/WGci6Ecp6JBso2aAg22XVVpSXhasAc2o89cISPAnUCX4zzssWRSgiaSQbSNnaqlup6am/mRPXcwsnOZEmsmUi7qlIZ7IFNd3/AX5c9FE7876QAAAAAElFTkSuQmCC;" parent="1" vertex="1">
          <mxGeometry x="355" y="310" width="140" height="140" as="geometry" />
        </mxCell>
        <mxCell id="iV_EhUxX30mRoUm4ifhz-27" value="" style="endArrow=none;html=1;strokeWidth=2;" parent="1" edge="1">
          <mxGeometry width="50" height="50" relative="1" as="geometry">
            <mxPoint x="200" y="80" as="sourcePoint" />
            <mxPoint x="200" y="120" as="targetPoint" />
          </mxGeometry>
        </mxCell>
        <mxCell id="iV_EhUxX30mRoUm4ifhz-28" value="" style="endArrow=classic;html=1;strokeWidth=2;" parent="1" edge="1">
          <mxGeometry width="50" height="50" relative="1" as="geometry">
            <mxPoint x="200" y="118" as="sourcePoint" />
            <mxPoint x="360" y="118" as="targetPoint" />
          </mxGeometry>
        </mxCell>
        <mxCell id="iV_EhUxX30mRoUm4ifhz-29" value="" style="endArrow=none;html=1;strokeWidth=2;" parent="1" edge="1">
          <mxGeometry width="50" height="50" relative="1" as="geometry">
            <mxPoint x="140" y="200" as="sourcePoint" />
            <mxPoint x="200" y="200" as="targetPoint" />
          </mxGeometry>
        </mxCell>
        <mxCell id="iV_EhUxX30mRoUm4ifhz-30" value="" style="endArrow=none;html=1;strokeWidth=2;" parent="1" edge="1">
          <mxGeometry width="50" height="50" relative="1" as="geometry">
            <mxPoint x="200" y="200" as="sourcePoint" />
            <mxPoint x="200" y="150" as="targetPoint" />
          </mxGeometry>
        </mxCell>
        <mxCell id="iV_EhUxX30mRoUm4ifhz-31" value="" style="endArrow=classic;html=1;strokeWidth=2;entryX=0;entryY=0.75;entryDx=0;entryDy=0;" parent="1" edge="1">
          <mxGeometry width="50" height="50" relative="1" as="geometry">
            <mxPoint x="200" y="150" as="sourcePoint" />
            <mxPoint x="360" y="150.98749999999995" as="targetPoint" />
          </mxGeometry>
        </mxCell>
        <mxCell id="iV_EhUxX30mRoUm4ifhz-32" value="&lt;div style=&quot;font-size: 14px;&quot;&gt;Debtors&lt;/div&gt;&lt;div style=&quot;font-size: 14px;&quot;&gt;&lt;br style=&quot;font-size: 14px;&quot;&gt;&lt;/div&gt;" style="text;html=1;resizable=0;autosize=1;align=center;verticalAlign=middle;points=[];fillColor=none;strokeColor=none;rounded=0;fontSize=14;" parent="1" vertex="1">
          <mxGeometry x="75" y="240" width="60" height="40" as="geometry" />
        </mxCell>
        <mxCell id="iV_EhUxX30mRoUm4ifhz-33" value="Investors" style="text;html=1;resizable=0;autosize=1;align=center;verticalAlign=middle;points=[];fillColor=none;strokeColor=none;rounded=0;fontSize=14;" parent="1" vertex="1">
          <mxGeometry x="65" y="20" width="70" height="20" as="geometry" />
        </mxCell>
        <mxCell id="iV_EhUxX30mRoUm4ifhz-37" value="" style="shape=image;verticalLabelPosition=bottom;labelBackgroundColor=#ffffff;verticalAlign=top;aspect=fixed;imageAspect=0;image=data:image/jpeg,/9j/4AAQSkZJRgABAQAAAQABAAD/2wCEAAkGBw8RDw8REw8VExMVDxUQFRUVDw8PEBcQFREWFhUVHxUYHykgGBolGxUVITEhJSkrLi4uFx81ODMtNygtLisBCgoKDg0OGxAQGi0lICYrLS0rMS0tLS4vKy8yNystLSstLTg3Ky8tLS01LS8tLS0rLS0tLS8uLSstLS0tLS0tLf/AABEIAOEA4QMBIgACEQEDEQH/xAAcAAEBAQEAAwEBAAAAAAAAAAAAAQcGAgQFAwj/xABIEAACAQIDBAYFBQ4GAgMAAAAAAQIDMQQRIQVBYXEGElGBkbEHEyKh8DJScpLSFCNCVGJzgpOio7LBwtEWJERT0/EXgxUzY//EABkBAQADAQEAAAAAAAAAAAAAAAADBAUCAf/EACYRAQACAgEDBAIDAQAAAAAAAAABAgMEERIhURQxQWEiMzJxoVL/2gAMAwEAAhEDEQA/ANvGe5B9hOCAre5BvdvJbRX+NRbiwK3lzDeXMluLFtXf40AueVxnvZOLHFgVPewnv3EvruPR2ttehh4detUUY7lecn2KK1Z7ETM8Q8mYiOZe+nnyGefIzba3pDrTzjh6apx+dPKdR93yY+85jGbcxdX5eJqNdnXcY/Vjki1TTvPv2VrbdI9u7bK2JhH5U4x4ylGPmerPbeEWn3VRXOvSX8zDWgTRox82RTuT4bituYN6LF0H/wC+k/5ntUsXTl8ipGb4TjLyMEHVXYJ0Y/6I3J8P6Aby5jPK5huD2viqWtPEVI8FUk4/Veh0my/SDiYNevhGtHtS9XUXh7L8FzIrad49u6Wu3Sffs07PewnvZ8vYm3sNi11qdTVLNwl7NSPFrfzWaPp31dipNZrPErMTExzCp7wnnyJfl5i/I8eqnnyGfYS+iHBAVvcg3uRLaIW03gVvxLnkeNuLKllq7gUpCgeLe5Etor/GpW9yuS3MBbmLcWLcWLau/wAaALau/wAaDixxY4sBxYvruF9dwvy8wPkdJ9vQwlHrtdaUn1acPnS7X2RW9/3RkG0cfVxFSVSrNyk9+5LdFLcuB9Hpbtd4rF1Jp/e4t06fZ1Iu/e833rsPjGvr4YpXmfdl58s3tx8BACwgAAAAKBAAB+uGrzpzjOEnCUXnGSeTTNX6HdJVjYOE8o1oLOSWinG3XXDtW580ZGe3svHzw9anWheEs8s8lKP4UXwazRBnwxkr9/CbDlnHb6bpfkL6I/LC4iNWnCcH7EoKaf5LWaP14Ix2qcELaIW0QtzAW03i3FsW4ti2rv8AGgC2rv8AGhUt7JxZUt7ApSZlA8W8uZLcWVvLmS2rv8aALau/xoOLHFjiwC7WL67hfXcL8vMBfl5nyulWNdHBYmonllTcU/y5tQj75I+rfkcn6Ta+WCjFfhV4RfJRlLziiTFXqvEfaPLPFJllgANtkAAAAFAEAAAFAEAA1X0b411MF6vfSqSh+g8pr+JruOqtojPPRVWaniqfbCnPwck/4kaHbmY+zXjJLV155xwW5i3FsW4ti2rv8aECYtq7/Gg4scWOLAcWVa6kvq7FWvLzA8swAB4vTUnFlfaycWA4sX13C+u4X5eYC/LzF+QvyHBAOCOJ9Kkv8vh4r/eb8Kb/ALnbcEcT6U4/5fD5bq7XjB/2J9b9sIc/65ZsADYZQAAAAAAFAEAAAADsfRfLLF1V24d+6pA063FszL0Xr/N1n2Yd++pD+xpttXf40Mrb/Y09X9ZbV3+NBxY4scWVVg4sX1dhfV2F+XmAvy8y558iX5eZc9ysB5AmRQPFreyX13Fa8CX5eYC/LzF+QvyHBAOCHBDgv+hbRALaI5X0lUM8Bn8ytCfjnD+tHVW5nzOk2E9bgsTTvJ0pNcZR9qPvSJMVum8T9uMkc0mGJgIptscIAAAKAIAAAAAoAHe+iqj7WLqcKcFzbk2vcjQeLOU9GuF6mBdR3qVZTX0VlBfwvxOr4sx9m3OWWrgjjHBxYvq7C+rsL8vMgTF+XmL8vMX5eYvorAL6Kxc9yJwRbaIC5FIUDxaz5EvyK9eROCAcEOCHBf8AQtogFtELcxbmLcWAtxbGXb8cBbV3+NBxYGG7awXqMTXpPTqVJJfQesP2Wj0jt/Sfs5xrUsQlpUj6uX046x73H+E4g28V+ukSyMtem8wAFJEYQAAAABQAASe5ZuyW/PsIff6D7O9fjqWa9mn9+l2ew11f2ur7zm1umszLqteqYhquyMEqGHo0vmU4x/SS9p97zPbvq7C+rsL8vMw5nmeWxEcRwX5eYvy8xfl5i+isePS+isOCHBC2iAW0RVppvJbRXKtObA8gQoHi+wnBFb3IltEAtohbmLcxbiwFuLFtXf40FtXf40HFgOLHFjixfV2A+V0o2X91YSrTy9rLr0/zkdV46rvMWaN+vy8zKvSDsb1GJ9dBfeqzcuCq3mu/5Xe+wvaeTieiVPbx8x1w5YgBoqAAABQABAABqfo42T6rDOtJZSrNSX5qOfU8c2+9HAdGtkPF4mFL8D5dR9lNX73olzNqpwWSSWUUkkloslbuKO5k4johc1MfM9Urfl5i/LzF+XmL6KxnL5fRWHBDghbRALaIW0VxbRXFuLYC3FsqWV7ktq7lS3sClIUDxb3K5Lcyt5cyW4tgLcWxbV3+NBbV3+NBxYDixxY4sX1dgF9XYX5eYvy8xfkAvyPR23syGKoToS0TWkss3Ga+TJcn/M96+iHBHsTMTzDyYiY4lhG0MFUoVZ0akcpweT7ODXamtUeudt6U5Q9fh4rLrqlJy7eq5ezn4T8TiTaxX66RaWRkr02moUAkcBAABYxbaSTbbySSzbbssu0h9/oK4f8AyOH6yWWc0s7df1cur35nN7dNZl1WOZiGg9DNgfctD2l99qZSqf0w5LPxbPv35eYvy8xfRWMS9ptPMtetYrHEF9FYcEOCFtEcui2iFtFcW0Vxbi2AtxbFtXf40FtXccWA4sqW9k4sq11AuZSZlA8W8uZLau/xoV6ak4sBxY4scWL6uwC+rsL8vMX5eZJSWTbeUVd55L/oC35C+iOe2r0zwNHOKqetkt1JKfd1vk+85PafpCxM840YRortf32p7/ZXgyemvkv8Ib56V+WlVq0YRbclGKvKTUYrvZzG2OneEopxov1893VzVNPtc9/dmZljcdWrSzq1ZVH+VJyy5Ky7j1y3TSrH8p5Vb7cz/GHs7Rx1SvVnVqS605PN7lwSW5I9cAuRHHaFSZ5CH0dhbIqYut6qDSfVc3KWfVUE0m9L6tLLidL/AOOMRf7op/VmcXzUpPFpSVxXtHMQ4kHbL0cYj8Yp/VmfA6RdH6uDlTU5RlGabjKOeT6uXWWTtlmvE8rmpaeIktivWOZh8g8qc3GSlFtNNSTWjTTzTIQlRtJ2F0/pTjGGJXq5LR1Ixcqcu5axfu5HYYXGUqsU6VSM49sZKSXhvMGP1w9edOXWpzlCXzoycZeKKeTTrPevZaptWjtbu3q2iFtFcyrZfTzGUslPq14/lLqz+tH+aZ1uy+neCqZKblRm/nrOGf01olzyKl9bJX45/papsUt88OotxbFtXc8KFaEoqcZKadnFqSfJo8+LK6c4scWOLF9XYBfV2KteRL8vMuefLzA8gAB4vtZOLK1vZFrruAX1dj0tqbWw+Hj1q1VQW5PWcuUVqzl+l3TX1UpUMPk5rSVS8YvsS/Cl7lx3Z1iK86k3Oc3OTvKTcpPvZcw6k2727Qq5dmK9q95dztf0iyeccPRyXz6mr7oJ6d77jj9pbXxOIf32tKa7G8oLlBeyvA9EF6mGlPaFK+W9/eQAEqMKAAIAB9XoxtX7lxdKq/k59Sf5uV/DSX6JtUXnruuv7mAGs+j7aMq+DjGWedGXqc+2KScfBNLuKO7j7ReF3Uv3mrpr8vMyXp7tf7oxcoxedOjnSj2OWf3yXikv0UaJ0r2lLD4OtVjdJQi+yc2op8lnn3GLHOlj97y928ntQABoKIAAAAA9jBY2tRl1qVWVN/kycc+as+863ZPpCrwyWIpqqvnRyp1OeXyW/A4oEd8VL/yh3TJantLa9jdIMLi//rqrrZZ+rl7NRfou/NZo+pfl5mAxbTTTyaeaaeTT7czt+jHTmcXGlipdaD0VX8OP0vnR435lHLpzHendcxbUT2s0e/LzLnnax4xkpJZPTLPNaprgeWe5FJceWQJkUDxaOa6d7beHw2UHlUqtwg96j+HPuTSXGSOlaz5GS+kPHetx04p+zSjGkuzPLrSfjLL9Esa2Pryd0Gxfpp2c0QA12WAAAUAAQAAAABrHo5w/VwEH8+pOb45S6i/gMnNu6O4d08HhqdsqEOt9JxTl72ynu2/CI+1rUj85n6fj0uoeswGKit1Jz74e3/SYub7WpqUZQ3OLi+TWTMEnTcW4u8W4vmnkznSntMOtyO8S8QAXlMAAAAACggAAAaL6NdtylGWEk9Yrr0279TP2odzaa4N9h3fBGHbBxzoYqhVTy6tRZ/Qfsz/ZbNxWnx7zK28fTfmPlpat+qnE/ClIUqrLxevIwjaOI9ZWrVPn1Zz7nJtG5YybVOo1uhJ+CZgcbLkX9GP5T/SluT7QoANBRCgACAAAAAKCAftg6HrKtOn8+pGH1pJfzN5XzVu05GOdCsP6zaGGW5TdR8OpByXvSNjtojN3bflEL+nH4zJbRGLdKsP6vHYqP/7OfdP2/wCo2m2iuZZ6SsP1Mcpf7lGEs/yk5RfujE80rcXmPp1txzTn7cmADTZwAABQQAAAABQI0bjsHEeswmGqPWU6EJP6XUWfvzMPNh6Czz2dhm79WUe6NWaXkUt2Pwiftb05/KY+n3ykKZrQeFSOace1NPkzA69F05ypu8JOD5xeT8jfW9yMj6f7P9Tjqjy9mqlWT3ZvSa59ZN/pIu6VuLTVT2681iXNlANJQCAAAAAKCAAAB2Xovw+eKqz+ZQy5Oc1k/CMjTbaK5xHosoZUMRUy1lVUO6EM/wCs7e3FsyNq3OWWprRxjgtxbOC9KuG9nC1fyp033pSiv2ZeJ3ttXc5j0jYbrYCU3eFSE+Scuo/4znXtxkh1njnHLJwAbLJCggAAAACgACADa+imG9VgcLF6P1MZNdjn7bXjIyHYuBeIxFGj8+aT4QWs39VM3KEcuGWiXYihu27RVd06+9nkUAz154t+J6O19k0MTT9XWh1tc07TUu1Pce+9CJZa7z2JmJ5h5MRMcSzjaXo6qxzdGvGa+bUThLl1lmn4I5/FdFcfTz62Fm+MOrVX7DbNnS3sJb2Wq7mSPfur21aT7dmC1sJVh8ulOH0oSj5o/FNdpv8Alne3YfjVwVKfyqUJLjCMs/FEsb3mv+op0/EsGKbbU2BgpPXCUefqKafjkfjPovgH/pKfdHLyOvW18S59HbyxcGyS6IbPf+lj9aovJnhLoZs78WX62t9o99bTxLz0l/MMeBr8uhOzfxbX89iPtl/wTs1f6b99iPtj1uPxJ6S/mGfbD6W4nCUnSpxpSi5uftwnKWbyz1jJaaHvr0iY7/bw/wCrrf8AIdl/grZv4t++xH2guhWzd+G/fV/tEc58EzzNUkYc0RxFnG/+RMdf1eH/AFdb/kPV2p01xeIozpTjRUZrJ9WnNSyzT/Cm1u7DvF0K2bvw376v9oLoVs38W/fYj7QjNgieYqThzT26mPlNeXQnZr/02n57EfbC6E7N/FtPz2I+2Setx+JR+kv5hkANhXQzZ34sv1td/wBR5f4P2duwse+dR/1D1tPEnpL+YY4DaF0WwC0WEp98c/M/WHR7Axtg6OfGjTfvaPPW18S99HbyxLNH6UqE56RhKT/JjKT9xudLZ9CHyaNNPhThHyR7EVkczveK/wCuo0/MsVw3RvHVPk4Wp+lH1S8Z5H3cB6PMTLJ1qkKS7FnVny3L3s05LewlvZFbcvPt2SV1KR793yNgdHcNg03CLc2snOTUptdnYlwR9da6sZZ6sX5FW1ptPMrNaxWOIXMoB49QFAEDKADAAAiKAIgUACFAEBQBGGUAAAAREUAQFAEBQBCgARlAAgAA/9k=;" parent="1" vertex="1">
          <mxGeometry x="55" y="320" width="80" height="80" as="geometry" />
        </mxCell>
        <mxCell id="iV_EhUxX30mRoUm4ifhz-38" value="Admin" style="text;html=1;resizable=0;autosize=1;align=center;verticalAlign=middle;points=[];fillColor=none;strokeColor=none;rounded=0;fontSize=14;" parent="1" vertex="1">
          <mxGeometry x="65" y="410" width="60" height="20" as="geometry" />
        </mxCell>
        <mxCell id="iV_EhUxX30mRoUm4ifhz-40" value="" style="endArrow=classic;html=1;strokeWidth=2;fontSize=14;" parent="1" edge="1">
          <mxGeometry width="50" height="50" relative="1" as="geometry">
            <mxPoint x="140" y="369" as="sourcePoint" />
            <mxPoint x="360" y="369" as="targetPoint" />
          </mxGeometry>
        </mxCell>
        <mxCell id="iV_EhUxX30mRoUm4ifhz-42" value="" style="shape=image;verticalLabelPosition=bottom;labelBackgroundColor=#ffffff;verticalAlign=top;aspect=fixed;imageAspect=0;image=data:image/png,iVBORw0KGgoAAAANSUhEUgAAAgAAAAIACAQAAABecRxxAAAABGdBTUEAALGPC/xhBQAAACBjSFJNAAB6JgAAgIQAAPoAAACA6AAAdTAAAOpgAAA6mAAAF3CculE8AAAAAmJLR0QAAKqNIzIAAAAJcEhZcwAADsQAAA7EAZUrDhsAAAAHdElNRQfkBBMMERCxWWeVAAAPV0lEQVR42u3df5DnBV3H8dftHRy/TlDEwwTB1JTwV6KMIaMhEAoZ5onVIMT4I8tJGcdfmTmiOekQ2ojTmIwMqRHFBMMkKpYoYugYYqaklKJhKpqocAcHB8ddfwACcvfdzy579/58v+/H4/vP7n4/u/fa3fs+97vf/e53EwAAAAAAAAAAAAAAAAAAAAAAAAAAAAAAAAAAAAAAAAAAAAAAAAAAAAAAAAAAAAAAAAAAAAAAAAAAAADYLpZVD1iQFVmV3TNXPQNG6qasz7qFvMI0BGB1Dsszc2Aem72qp8Do3Zpv5qpcnk/litw+38HjDsCq/HZOzKEjXwnj9KOckw/mS5MOGe9F60E5Oa/MA6tnwJS7OG/PJVs7c5wBWJYTcpor/LBELswr8z9bOmOMAdgnZ+cZ1SNgpqzPq3LmfV+8vHrXfRyRf8kB1SNgxuyQ38wj8/FsvPeLx3YN4Pn5u6ysHgEz6jM5Njfc8wXjCsBJOdNP+WEb+lIOy9q7nx1TAJ6b87OiegTMuEvynNxy1zPjuQ3gl/KJ7Fw9Ambe/nlILrzrmbEEYJd8MvtUj4AWDso38tU7nhzLd9xvzYHVE6CN9+WhdzwxjmsAB+askSyBDlZmr1yQjOVGwAtzTPUEaOYpuWIc3wI8MUdXT4B23pCMIwCvHsn1EOhkTfYfQwB2zZrqCdDQXI4fQwCOzW7VE6Cl4zOCe979+oKO3pwfZn31ZBilZVmdXRZw/AHZt3pyck02Dzxdnue5ryBM9JicmpsHX6ZOrJ671+Cp73VPARjkybl24KXqPdVTDx049Hw/KYDBDs5tgy5XF1UP/b1BM2/Nw6uHwlT5wKBL1jeqfwqw+6CjLs13infCdPnbQUftUR2AVYOOurJ4JUybYZeZVdUB2GHQUQv6WyfAPR/1Z4KV1QEACgkANCYA0JgAQGMCAI0JADQmANCYAEBjAgCNCQA0JgDQmABAYwIAjQkANCYA0JgAQGMCAI0JADQmANCYAEBjAgCNCQA0JgDQmABAYwIAjQkANCYA0JgAQGMCAI0JADQmANCYAEBjAgCNCQA0JgDQmABAYwIAjQkANCYA0JgAQGMCAI0JADQmANCYAEBjAgCNCQA0JgDQmABAYwIAjQkANCYA0JgAQGMCAI0JADQmANCYAEBjAgCNCQA0JgDQmABAYwIAjQkANCYA0JgAQGPTEYBl1QNgNlUHYNhFe3nxSphR0xGAFcUrYUZVB2AY1wBgm6gOgGsAUKg6AMMIAGwT1QG4adBRm4pXwoyqDsAPBx21oXglzKjqAFyWzQOO+lbxSmAb+bNszOaJp//NXtUjYcrsOM+l6s7TGO5jt28Ozp5ZtcWb+n6aa/OZrK2eCFNmx2HfOI8hAMBSGxiA6tsAgEICAI0JADQmANCYAEBjAgCNCQA0JgDQmABAYwIAjQkANCYA0JgAQGMCAI0JADQmANCYAEBjAgCNCQA0JgDQ2Ip5zl2V3UViovW5KeuqR8DibDkAe2ZNDs9B2d/f5R3k+nwtn81H8rlBf+YERuyAfCgbhv1RAaefO/1XXpodqj+BkMF/GOTer7Qyp+W28ovRdJ+uzCHVn3tYTABW57Lyi88snG7La6s/+7S34AAckGvKLzqzc3qPv7lEqYEBuOsW/r3y0Ty8evMMeVXeVj0B5nfH16kd8okcVj1l5qzJ+dUTaGtBfxvwzS7+28AZ2bN6Akw2l2S/vL56xkza07cBjN1cktdlZfWMGfWS/EL1BJhkLjvnRdUjZtbKnFQ9ASaZy9HZvXrEDHth9QCYZC7Pqp4w056QvaonwNbN5VeqJ8y0ZXli9QTYurn8YvWEGfeo6gGwdXPZo3rCjNujegBs3YrR/AhwY87Nldm0JG9rj/xWHlP9Dt1pp+oBsHUr7v+bWBIbc2QuWcK399acl6Or3ykYu7E83NfZS3rxT27JK6vfJRi/sQTgyiV/i9/KTdXvFIzdWALwuCV/i4/IrtXvFIzdWAJwfJ6xpG9vZU6vfpdg/MZyI+CKXJxz8sXcsiRvbd+syQHV7xKM31gCkKzICTmhegT0MpZvAYACAgCNCQA0JgDQmABAYwIAjQkANCYA0Nh8dwS6PR/KZVlbPXOkVmS/nDSaRx6ARZj0pwPX5enV80Zv55w98WN4SvVAWlrgHwfdsjfmsur3Y/RuzsvzneoRsDiTArApZ1XPmwo35h+qJ8DiTArAOg+pMdD3qwfA4kwKwObqcVPDR4op5ceA0JgAQGMCAI0JADQmANCYAEBjAgCNCQA0JgDQmABAYwIAjQkANCYA0JgAQGMCAI0JADQmANCYAEBjAgCNCQA0JgDQmABAYwIAjQkANCYA0JgAQGMCAI0JADQmANCYAEBjAgCNCQA0JgDQmABAYwIAjQkANCYA0JgAQGMCAI0JADQmANCYAEBjAgCNCQA0JgDQmABAYwIAjQkANCYA0JgAQGMCAI0JADQmANCYAEBjAgCNCQA0JgDQmABAYwIAjQkANCYA0JgAQGMCAI0JADQmANCYAEBjAgCNCQA0JgDQmABAYwIAjQkANCYA0JgAQGMCAI0JADQmANCYAEBjAgCNCQA0JgDQmABAYwIAjQkANCYA0JgAQGMCAI0JADQmANCYAEBjAgCNCQA0JgDQmABAYwIAjQkANCYA0JgAQGMCAI0JADQmANCYAEBjAgCNCQA0JgDQmABAYwIAjQkANCYA0NiK6gFM8JgclUdl7+oZTKGBX9oFYKwOz9tySPUIZp0AjNFOeX9OrB5BBwIwPjvmIzmiegQ9uBFwfN7l4s/2IgBjc3BeUT2BPgRgbP7U54Ttx3+2cdk7x1RPoBMBGJdn+4ywPfnvNi6/Wj2AXgRgXA6oHkAvAjAuD6seQC/uCDQuu1UPGOz2fDHfybV5QB6Sg7K6eg6LIwDjsnP1gEGuzjtzQa772fNzeVpemhOzvHoYC+VbABbmtrwmB+QD97j4J5vyubw4T8rl1eNYKAFgIX6cI/Pu3LbF867MM3NO9UAWRgAY7rasyWcmnH9zXpQLq0eyEALAcK+aePFPkk05Pt+unslwAsBQX8kZA45amzdWD2U4AWCoU7Jp0HHn5srqqQwlAAxzYz4+8MjNOa96LEMJAMNcnFsGH/vR6rEMJQAMc/U2OpZSAsAwP1jAsT9ZwLUFSgkAw6xcwLHL3cV8WggAwzx0AceuFoBpIQAM8/htdCylBIBhDsleg489tnosQwkAwyzPiwYeuVvWVI9lKAFgqD/J7oOOe00eUj2VoQSAoR6cdw046nF5XfVQhhMAhntJTp7niAfnn7Jr9UyGEwAW4i/zzgn/Zx6dz+YR1RNZgPUCwEIsyxvysRy4hXN2zMm5PI+tHsiCrHOHDRbqqByR83NeLsoNSZJleVKOzYm+9k+hHwsAC7c8x+W4JNfn+3lAVmeH6kEs0n8LAIu3R/aonsD9cpXbAKCvzwsAdHV7LhUA6OqyXC8A0NWH3REIurop/ygA0NX7cr0AQE/r8+5EAMbm1uoBNPHnuTYRgLFZVz2AFq7KaXc8IQDj8n/VA2hgQ47PhjueFIBx+Xr1ABp4db5015MCMC5XVA9g5p2W9939jACMy8eqBzDjzszr7/msAIzL1bm0egIz7PS8LJvv+QIBGJt3VA9gRq3Pi3PyvS/+AjA+F+Xc6gnMoC/n4Jx13xcLwPi8NP9RPYGZcn1OzlPyn1s6SwDGZ10Oy6erRzAjrsubs39Oz+1bPlsAxuinOSJ/kGuqZzDV1uX8PD/75O13PnjrFnlMwHHalPfnrByd5+TxWV09hqmxKTfkJ7k6V+UL+WI2zv8KAjBet+aCXFA9gtnmWwBoTACgMQGAxgQAGhMAaEwAoDEBgMYEABoTAGhMAKAxAYDGBAAaEwBoTACgMQGAxgQAGhMAaEwAoDEPCdbRUfm1PKh6xATfz0X5QvWIHgSgm2X5YE6oHjGvt+SUvK16RAe+BejmxCm4+CfLckqeXj2iAwHo5pjqAQMty3HVEzoQgG72qR4w2AOrB3QgANCYAEBjAgCNCQA0JgDQ2KQA7CIPA+1WPQAWZ9JFfMccWj1vShxePQAWZ/LX+Pdm5+qBU+D4HFY9ARZncgCekMtzpAhMsF/ekQ9Wj4DFmu+XgQ7MP1dPBLYVN/NBYwIAjU1bAG7PxuoJU256PuMeq2I7mJ7/DpfkpOybldkxD8vx+UT1nCm1LPtVTxjssdUDetg8Bafr8hv32X14ri3fNeR0SvUn+F5OLP94DD9tzCHVH67ZNw3XAH6Qp+XC+7z04jw1366eNmV+J++tnrAAy/P3eWb1iFk3/u+zNuZ5+eYWz/lujs2/ZafqgUtsj/xhnpIHbIO3vF8eXf3OLdC++XS+kh9t53/1u/l0PpzN1e/89lJ9RW++019PXH9q+b6l/RZg/3y3fLHT5lw4FdeNl8D4383TJ577nsxWqU/Pw6onkOSY/H71hO1j7AH4Vr428fzv5d+rJy6h5XlW9QTu9NzqAdvH2APwjSU4Ynrsll2rJ3CnVdUDto+xB2DtvEfcUD0RptfYA7B63iP2rp4I02vsAXhidpx4/rI8uXoiTK+xB2D3eW4We9oU/aELGJ25bKieMI+3ZtnEc8fuluoBsHVzub56wjwOzmu3et7Lc2T1vHldXz0Atm4uV1dPmNc7t3KnjN+d505C4zD+jy+NzeXL1RMGbHx/PvRz3+vvnTNy9jw3EI7B5in4+NLYinwqr6geMcAJeWE+mYtzTTZlv/xajpqShyrd/r/KAguwIh/LDdm9esYAK3PM1Pxt+7udWz0AJpnLzTm7esTM2uAhwxm3uSSnjv5HgdPqzHyvegJMMpfkmvxF9YyZ9OO8pXoCTHbHPQHfniuqh8ygl+e66gkw2R0B2JDjcm31lBnzjpy34Ne5vXo0PzNbDzSzVXf9LsC38+z8oHrMDPmrvGkRr3Wj2wxG45rqAdvH3b8M9JUcmq9Wz5kJG/PH+aNFfgU5o3o8SZKNU/X4yffD8ns8/dP8TXbJU0f/G4Lj9rW8IOcs+rU/lwflqRN//Ylt74a8rMufnrnvf7VfzptyXHaoHjaVrs6pOSu33c+38sg83se/0I35fJ9f4dry15oH5wU5Igfl4a4NDLI2X8+l+Uj+tctNR8yKyVc2d8qqLg+OuGgbs7bP1wsAAAAAAAAAAAAAAAAAAAAAAAAAAAAAAAAAAAAAAAAAAAAAAAAAAAAAAAAAAAAAAAAAAAAAAAAAAAAAgEX5f7sGr0fEWcIWAAAAJXRFWHRkYXRlOmNyZWF0ZQAyMDIwLTA0LTE5VDEyOjE3OjE2KzAwOjAwzlILrQAAACV0RVh0ZGF0ZTptb2RpZnkAMjAyMC0wNC0xOVQxMjoxNzoxNiswMDowML8PsxEAAAAZdEVYdFNvZnR3YXJlAHd3dy5pbmtzY2FwZS5vcmeb7jwaAAAAAElFTkSuQmCC;" parent="1" vertex="1">
          <mxGeometry x="360" y="50" width="140" height="140" as="geometry" />
        </mxCell>
        <mxCell id="iV_EhUxX30mRoUm4ifhz-43" style="edgeStyle=none;rounded=0;orthogonalLoop=1;jettySize=auto;html=1;entryX=0;entryY=0.5;entryDx=0;entryDy=0;strokeWidth=2;fontSize=14;" parent="1" source="iV_EhUxX30mRoUm4ifhz-42" target="iV_EhUxX30mRoUm4ifhz-42" edge="1">
          <mxGeometry relative="1" as="geometry" />
        </mxCell>
        <mxCell id="iV_EhUxX30mRoUm4ifhz-44" value="" style="shape=image;verticalLabelPosition=bottom;labelBackgroundColor=#ffffff;verticalAlign=top;aspect=fixed;imageAspect=0;image=data:image/png,iVBORw0KGgoAAAANSUhEUgAAAOEAAADhCAMAAAAJbSJIAAAAclBMVEWEgoT///9/fX+Bf4F5eHmMjIx9e33Ew8R5dnmEg4R+fX7t7u3IyMh/fn/y8vJ+e375+fmVlJWrrKvOzs7a29q9vb3i4uKampqIh4jU1NTx8fGgn6Do6Oi0tLSXl5evrq+mpKa6uLqQkZCmo6ba2NrGxMbv9EHXAAAJyUlEQVR4nO2dCXujLBeGrQgOrogbxjW+8/3/v/iBJtEsNptOhHh32qvTpg33YJvAnOeg/SwAIcSziySKoizLQoEzYHIO73afCvltoigpbI9/2QKD0Wb5Lr1QaMZl3eQBZMAwEMcXr3qPP3odveEcbogMpLEgzZt6b4a98Sxje8uQFFHm7KlwwsDw+ZCBQHud7uu5vI90zGCQ05LbFrt3XF8xJF6RmWVTMQ24emf1htMdX727AwxTunei4pVpfcqQFEm4bwLILyxxvwt5XYOFLJ/ZPy6smn2Y2M+IPmhI+KzVKdR09C/NbsBNka7BtDaz4jHP+4Ze4lDuBj6sdg4XBcLTSbz3DIuQBsxaldsYMaE4oOGvszlpSAqHQoDWKjcA+CBZ40xa3jbcZbQF/urlBvhFC+vs5hV7w9BzUmytf+4u4ZcsTsPrmbw0JGFl6NLZHQHI+u/vr4ZFiWW6Nm8BEDS9KcMkB/qnBzgD/GotvVuGdmNJPn0DOjbJpSEx5fvd8huojc4Nvdz/9JhmBujx2NAOVPgBvADtB0MbKnWFHrF2J8NASUENhSdD+OmxLINeqm4IGuUNU+UNW9UNNbYZSo+rvCFQ3tBS3tDYDKVnM5SfzVB+NkP52QzlZzOUn81QfjZD+dkM5WczlJ/NUH42Q/nZDOVnM5SfbzJs1aynGRkqWjH0VYap8oa58oaN8oa18oaxgvWzgsEwRJ8eyzIMhoXx6bEsAqpPhj+Vij+IeldeejBMNPUUESUjwx87UCyNAIxDGGHIzKiVKPFh8nNp+ONRVxFHoDPnpHWW7CooVuBaBah1xinE83SeHTMk9UQCZOXRmdJ1hjRrNFkTlkAHqXOVlL2Vkg0ptGSzBLrOmnB3bTORdCZRnGIkiyUAPgjiaCKZP53H30Vl6vqrzeL3dC0WqjK7NXl3Dbu5TJy6ZfoqU/miU4YGGzO60zzigb4YXhKWKbTWM538qvQNltZO9MvUPWPYQezEKXNmiI46nxMFuo8Mt6Jx9Hh7k2f709gRF4UYWGjJxjQXXuKCRBYAMI/D5NkWNS/2GPKSKCxp2jJsIWsR10OzIWRhBtOmdKLEfm2ob/aJIjs7yZy4ziuILQudGik9LQwO/ZN05CPdchkMUlrHb7dQet9wBPFsPrHcluZVBSHGWOOv2BVYHcYI1H/I4p/EAIueUGlOy9gJsyjhUjM2/ZrP8Bakx9t5nJ09Qnxkx1/IMi3MRixruAa+xLD49CiWgXTr4M4Qtzc618hOUbJhv9Ti6/5YqYn0wtzVNSTe7QzFhvDN1aOkRJR1nWiGOfzTP+jqlgKSJGvcY5+kS8NO0gj2Tz/zWw2kcHI02mi6YdhJIpabEloWWR1cbL7cNuwtXZZObgusD75QpxBfr1+nDXtL34DNMwuxT0B2XC6wJvpVDoaT/7nW9SVs4iyZqR/sjBAvyeImYL814xw9Hk7dpLPkaxrMuOeTfUMXg89bGNOK4bs9VB80HDz5Irtqulawn1HzisjZN6LT6IOtRp8yHIkiS2NtU4t2xrMu5CYgRKw7TZpCBp5sffuK4WDKnx8ArLGqW7dmfbPqGbV2RZSF5r5u0paJf1f/lX2SdwzHqvyxhb8Ry/QqbWi5Nx2xTrd3D/fnPnT/zkJHtMumeVoFEAPAl//6e62lZzG8tO27NyNkuS7g4niAwRMMXwBcy0JIP+3yzLSvNRi683zD1TEY4k8PZSE2Q/nZDOXnmwzZp4eyEN+Ut9gMZeWbDNVPlGyGsrIZys83Jbs2Q1nZDOXnm/KH/ylvqP4cboayMhhS5Q3VTzpvhrIy+jlUM60OhvMtIgVjwFxQK06GPxFWTxGAPoh4qIJWL8x9FDzVedupWn0V/OpY9DNUsjtMgRBwD0AsPHmNavWJ7CHgAwDBcdT5LI1AHCi7I9CNKjsr47nMW0SUyRKOvQboeru/DIBdJ0pIxiUltAQ+DsrkSud2ZoZEZeuuMho7AfANlju38xSTqSA7pPDTR8U/ArhXmP5r7skOy5S5q9UUZaYsqKcPHb9vKPASh2vq65pOAHxkwap2kvvFvI9l17xC1FS7xsfz3F0Fr4GfyTo/k84jIuacsi7l/69Sziez7k61ttk/Mm+vGh5FiyiMaRowgA4FoUt66QjpDFZ5aWavZZ3fSFiKSmUnFnXK2DIQQvPYgoMWMlwW5LQTeysLMUuGlBCvECHnkuaByHSLJLOPxB9RMMwn+lj6e4H4pC90fP7yR3wVhkHa1LGTRcVcdeOLpGSJtyuKJIqyLAwd04zjsizpOXUpiGPTdMIsi6KuFH6JsXxLDlhpvsQwD6UJ4j1BUg5ZbohYfa+RjWTsnBQgKt7rDYEG3CB+sXnI+iBRw595XZ3LDXS3MhWQ9LIc9wv4G+dy8+d+bfz7WmTl2E4OrNPzKig+dFlfyiVhE0rZfcD7WwZ8MTsqy588lxsgAOtQqguWRGWgXe27YPGpqRphoBu4MaN3G/z8A7zCoVCsXK8l7p48zq9YV+ScP5WKvYdYr9YVm+4N+NDZ6iK+qbG0Nv+u6TcQ6VuOsTuhWV3c9rFK9i7njIOmdJKPTmi3Sts33T7DAxsqT9fq9zFnBtM6DqN/GV3nYknm7EX3NP2ZsPOraYRuzwRojC/B670Z8jX4bomlnVhkik5pfFndMg2/0hXu7bwF6K8VoImVed7UZZdxfjnWTY6JZ2HVpAHEIu78ztbInImSYVcCiUclzESuueXaTS2W8zHnf+aA+Dtf4teUNk2Tpm0LIYOMzxQG3c7HTGnnpTMzZ/sxNxjv2CwygC9IBf3ZDKVnM5SfzVB+NkP52QzlZzOUn81QfjZD+dkM5WczlJ/BUNUznQdDVftifJOhqh0HBkNVz3QeDFXNcg+GqqZkB0P1z3TOlMnlnQGCk+FuplbJKwNFJ0M1w9zI/BkMvVytjKzgIHisESax7NHKCwA45mRPVdBFqpAjQM2pLG9U5521ijgCPR8lLceV7CRLDekdgW7RsyTpRa1+USNfYkmg/4GXBzpdpxGyBkuYAta6I53bG7Xqt/IWJKNQsqwzvzangsATiRKSmCmW5IIVx/1U02c3/ZKZEZZMX/VkimJJfOdkqnupIDsrc6i9dgjKkvQnGOVleLcI9JHcEymymLZrSTuL2k+LBTTOHqtafjzZJdLOtGII8R/Pj5j2KWfWn7D18LCfzq4RLmqWeYu7isMlQ8AnL35HFr8nVjX78IXDw15O53ld3jkPIMPuMQM8ky04ZoF1cQBRTkVo9vWa67fzh11dbxYeynqZi4wu1tulf59D5IYNA4jDj5vuEKloluTszAlLQshOFDKLs5uewgnFac72w2dEPc7/AVsqszeneZcFAAAAAElFTkSuQmCC;" parent="1" vertex="1">
          <mxGeometry x="690" y="200" width="80" height="80" as="geometry" />
        </mxCell>
        <mxCell id="iV_EhUxX30mRoUm4ifhz-45" value="" style="endArrow=none;html=1;strokeWidth=2;fontSize=14;" parent="1" edge="1">
          <mxGeometry width="50" height="50" relative="1" as="geometry">
            <mxPoint x="500" y="120" as="sourcePoint" />
            <mxPoint x="730" y="120" as="targetPoint" />
          </mxGeometry>
        </mxCell>
        <mxCell id="iV_EhUxX30mRoUm4ifhz-46" value="" style="endArrow=classic;html=1;strokeWidth=2;fontSize=14;" parent="1" edge="1">
          <mxGeometry width="50" height="50" relative="1" as="geometry">
            <mxPoint x="730" y="120" as="sourcePoint" />
            <mxPoint x="730" y="190" as="targetPoint" />
          </mxGeometry>
        </mxCell>
        <mxCell id="iV_EhUxX30mRoUm4ifhz-48" value="" style="endArrow=classic;html=1;strokeWidth=2;fontSize=14;" parent="1" edge="1">
          <mxGeometry width="50" height="50" relative="1" as="geometry">
            <mxPoint x="729.5" y="370" as="sourcePoint" />
            <mxPoint x="730" y="320" as="targetPoint" />
          </mxGeometry>
        </mxCell>
        <mxCell id="iV_EhUxX30mRoUm4ifhz-49" value="Request" style="text;html=1;resizable=0;autosize=1;align=center;verticalAlign=middle;points=[];fillColor=none;strokeColor=none;rounded=0;fontSize=14;" parent="1" vertex="1">
          <mxGeometry x="605" y="90" width="70" height="20" as="geometry" />
        </mxCell>
        <mxCell id="iV_EhUxX30mRoUm4ifhz-52" value="Response" style="text;html=1;resizable=0;autosize=1;align=center;verticalAlign=middle;points=[];fillColor=none;strokeColor=none;rounded=0;fontSize=14;" parent="1" vertex="1">
          <mxGeometry x="605" y="130" width="80" height="20" as="geometry" />
        </mxCell>
        <mxCell id="iV_EhUxX30mRoUm4ifhz-53" value="Request" style="text;html=1;resizable=0;autosize=1;align=center;verticalAlign=middle;points=[];fillColor=none;strokeColor=none;rounded=0;fontSize=14;" parent="1" vertex="1">
          <mxGeometry x="600" y="340" width="70" height="20" as="geometry" />
        </mxCell>
        <mxCell id="iV_EhUxX30mRoUm4ifhz-54" value="Response" style="text;html=1;resizable=0;autosize=1;align=center;verticalAlign=middle;points=[];fillColor=none;strokeColor=none;rounded=0;fontSize=14;" parent="1" vertex="1">
          <mxGeometry x="600" y="380" width="80" height="20" as="geometry" />
        </mxCell>
        <mxCell id="iV_EhUxX30mRoUm4ifhz-55" value="Frontend (Website)" style="text;html=1;resizable=0;autosize=1;align=center;verticalAlign=middle;points=[];fillColor=none;strokeColor=none;rounded=0;fontSize=14;" parent="1" vertex="1">
          <mxGeometry x="360" y="180" width="140" height="20" as="geometry" />
        </mxCell>
        <mxCell id="iV_EhUxX30mRoUm4ifhz-56" value="Admin (Website)" style="text;html=1;resizable=0;autosize=1;align=center;verticalAlign=middle;points=[];fillColor=none;strokeColor=none;rounded=0;fontSize=14;" parent="1" vertex="1">
          <mxGeometry x="365" y="440" width="120" height="20" as="geometry" />
        </mxCell>
        <mxCell id="waoizmoGo2lEUvjCZ8Yj-2" value="" style="shape=image;verticalLabelPosition=bottom;labelBackgroundColor=#ffffff;verticalAlign=top;aspect=fixed;imageAspect=0;image=data:image/png,iVBORw0KGgoAAAANSUhEUgAAAQAAAAEACAYAAABccqhmAAAkiUlEQVR4XuzUQREAIAwDsA7/nosE3twSEZm22Qk4+QEgAEAAgAAAAQACAAQACAAQACAAQACAAAABAAIAAQACAAQACAAQACAAQACAAAABAAIABAAIABAAIABAAIAAAAEAAgAEAAgAEAAgAEAAgAAAAQACAAQACAAQACAAQACAAAABAAIABAAIAJg8cdk79+C4rvqOf+5qtXo+VpZjOXbiyI7lRxuStSHh0RZL0JmmMNNIKVM67SSWkvKahonVdtpCAdvQNoF/7EBTQmmiddJCWyCWWwoJafGGwpABYq2Bgu3E1tqJTWTL1uq12vfpmd/cVXeExhONtbv33j0fz51z/Zd05/r7Pd/f75x7rI7SBXKFgCC/TATA6pWxQhgefWl94f308MvEgSgQ/+Pu81GugjEAI/gekGuXjMsjahvCIauXKKXCiD246B2FWB4R4Agwog0hZgzAiL4PuAtkDFJMPWABAZYmD2SAtNwXEwMeAcJWL3FWACP6ovdURI1VQ0NNI7W+OgI1AZYinUuTyaeYzc6wCDFsbQRhYwDVJfogsAfYDXRRoMEWfR0QYHmkgRQwJ/fF8fMRq5d9LB8wwu8C9haZswi+tbad5toWmvwtBHwBlsNcdoapdJzpTJx0PlVs2EPaCEaMAVSH8B8EgguibwSaWJoskJNRLsFXZBB1S5sBM8AcBaLA4LJLAyP8gWLRr6rrENEvxXwuQV7lZMzpESDgqxOD8NkpYRFiAhPJ8eJkEAH6tRHEjQF4T/wDwIEF4TcBbYB/UaSfB5IL0f71EbCNoB5oWGQEcSBJgSGrl4NcDRP194j4beGvru9kdV2n3BdI59NavJPMZmZI5uZlJn89NPtbaKpt0WYSFEMoNoILiVcKiSBum0DEGIB3OvnDQM+Swi+IfgZIr9ACa4tcci/MAJMIdl9gkMUY8ffY76lrCeGL6CfTE0ymLotQrxFJB50N62gPdABIatAmID/DZtDLvQGrihp8w0CQALCqKLpngSlb/HkWUQIjSAMXgfwSJmDEv8+O/DI739i0UYRfqNkvJcclrpeCxUYwmb7MK3NjnjcBqwrEv/CPijb7Khb+HOXBD3QAdUubgIn8DAN9WvAifG0AC8Ifn78g9XkZkPLghqaN0jOoBhOwPC7+YWAAH3CdiE9gSq7K0AE0FZtAdfcEbPEfBUK6Huem5s0iPh3FRXwy45cXSR2bWrZKf2CRCezw2iYiy/Pi9wOrgYAtuisyVpYm2wjSwGsU2FFtqwN/VyR+PfOK+LX4RPRadGIClUQnESkJJlLj0hcA4sDGBzy0OmB5WvwBYA3gs6P+ZHGd7wgTKG4MxmwTiFMC7jtyOgiEAJ646+ZIxcV/6v/F3163WoutC0CEppfkcApiAnUdxGZfZjodBxh5YMv5fmMAzhX/HuAAPmAt4LcFNoPzKJQDF4EkAPtls9C1Cb2wjfm2hX3xVydim8/zQESbQ6xMBnAY6NMxm02tWwE4O/uyLOk5CSkHWrdKk/BE/MeFVNKrTSBiDMB54g8Bo/jsmT8AXAbmcC5rAR9wAYC4nQJiyxB8V9H22B6unShwCBgRMyiJ+G8Qk26oadDi2gbAmekTzOfmcSDSk+hu+1Wm05O6NIkBxB7Y8upGYwAOQn2bIBajQBcyszpf/ILfNoEpYOb1rgqI8AeA3YtF31RXQ1u9n2Y91vl98ne/z2IpUtk8yUyeqWSWuVSOqfks2byiiDCwX4xg5cQvJq1nVhG/nllt8SdwMq2BdrqaN3Nm5kQhpQxqEwgbA3AI+W9zwII9NADXLdTW7qANaLFTQB4UtPveQXwJ0S/ewizi7miqZZW+2hr88vdr4fJchoszaRmLOGgbQXwFDGAUCK1r3IDe5GPX1pO4gZvttHJ6+oRnUoDlEfF3AWP4gHVABhjHXawr3pfAfm0A+xaJf1+R8EXsnS0B1uhrETKLy4yezJLN6ft0jqVoCtRQX+uTxKCTwuJ0wLkrScZn0tjEgMFraSBq8Q8Aw/oDHja1bEOv7+vrPC5B0sq24K3SC7B3IfZqE4hQYYwB/DdHgR6CQAvwCyCLu2i2k4DogZjvnWy0hb+wNbYg/A3t9TIWCV7i+5W5jIzJbJ7lIUlCTEUbiiQKGzGSU5cSMgpIEtjHMvncqRuCwBgQ1DOpNNdOTf0vLkNWBSzgnOwNIPzhLa8OGgOorPilpsQPrLdj/zTuZD1wCUjD2dwt/Z9MjOwC9hRq+02rG4uFL2K/OJNifDrNCiJmsC5Yr686uQfQaUBf89iEh/s2Dy7TAKTxt0qW/DaK+IvqflelgC26IfjTyWML+wK0CcSNAVSI3H8ha/6Wvb9fvYZrsYKAD85NbOeJ5Gd4Jb9dBLhhVYOI0UZqdC1GaeCVEBH/pusaJRUUfu6ZSwlJHMs1gc+dvGEM6NLikfX01yT6uxOdYGSvwpT0Lhj88Fb3NgMtl4s/CEziA2s9qEtAEvfih5PNb+bR858noVpk1t++tlnqdIDxaRG+1OflpK2hlu3XN4kh6FKAn5yfKTKB7sHXIf4+4LCu/elq7ubn8eOynu5WdIqR8wheKZQBW91bBvhxM4oBLKABSLtc/MD35u/miclPA9DZGqB7TRMAs8kcZyYSEvkrQTyR4YdjU7xhvZgS29Y2iwkAAwOHX3o+3N8d5ursBmgPrJaZU8TvYq6kJuTLQZs+oCIGYBLAc8iSktUJagZIuFj8WS3+pIhfav1C5L8QT2rxz+MAJAF0dzbS0RSQcuDU+Byg4kBvuH9LlCX47MkbghZMAtzSvtPts39xM1DMzO5j7NApIGoSQBnJfougghA+wA/KxeIfzf4mjycfBhRb1jTR2VonEVsLjMtzaZxCJq/42S9m2Xljm/QFJmbT6N8viGIY2MHS9CigLdBOPD1JVuXwArPZGTlVKCEGQAgwBlBmelB2/E8ACjcijb4ntPhRSMOtIP4fvzot9bYDkd/t1hta2NLZxOi5LLoZGdr99Kk9h+7ecpDFYO0C5Cw/+bQXCy8wm5m1ywAL4DbKjjGAXQBWPahpXElCtfK55KN6bJGaf32wjtlUlp+8Oi0m4FDEoE6Oz2oTaNXlSoOkAmDvvU+fDD9599Y4xSh6ABr8jbwyO4ZXSOdSspcBBUDIGECZUYoQgLyDFK7ky6mPMpFbL4013fAjk5OZn6weHY40Js9OzEtqaW2oZSqRKWxT3kcxENJCEcF4jOJeRg8uxYd76QFQeVzJydwdfC/TL421X7m+hWzePeIvcD6eZGo+w02r6hFQD977tRNBbD574kYRRr2/UT6g8RrpfFqeDeCREzcGTQIoE5lnCKKKTvlRuI7Hkw+hUNzY0UhdrU/H6BmJ/y5DSoHbu9ppbfCjzSAIDAAHARQEATlaS3fLUXiL2cy0lAEKIQREjAGUBTv++4B5XMeR9ANM5NfLBp/1bfWcn5zn8kwaN5JM5xmfStHZUocuAwAeBA4Wv6can5/ZpAcTQC5NWyBYSDcmAZQLpRCoBzXlrgSQoIXnMvcCSrroyUyOM5fmcDNnr8xxR1e7fg5pEHbd89Wfh556z/YoNj5q8CDyRWCN5S+elEaMAZSx/hfyuAmp++fyLbQ11krzTNf9KIWLkRQgewLWtNbpNJME2A1EUexaaJYpPEkql6rYs5mtwClcx3OZewAl6/2XtWimEmm8wPh0kps6GqWcAfqAIYUFwHx2Hrn3IIGa+oo9mykBcnLvps6/1P51tTViAD8Ym8QjiJltuq6ZGp9FTpcBf/iVn4XgTgoJoAq4zRjAVTF8N3MXSik5cGNiJkUyncVLTMwk9bMFJA0APXifQgPQNAHLioKFXYDzuIbR3DsBpFaWxp+3kO8WOlvrCwawC4Ugo8KbKEwPoFLkXaShc/ltzKkWWfrTMVk+sfUY8kwbVjWiEHoURAGyKmv0XwJMDyCFaziWfQcoJYdr6HpZ7r1INp8vPFswmV7XVR+4wHw2QVVjtgIbTuRuBxADGJ9K4lVmUzlZ4gTIZFZ34XFyKkv5MT0A13EutxWFkg9/ZlMZvMrUXIqmej/xRJrp2TfQ3PQTvEwiOw9mGbC8KIjhIhKqRS5Adv6h8CyzySxtjQFQkM01leRZDSYBxMBdDUCFIqiFMZvKyr1XyeQVdX4LhSIxv9EozBiAYSK/DhTUWBZTc2lQeBo5rtxOAFXE88YAykcU5TIDAJrra3j1ShrvowBIzG9CscIYjAE0/A7xxBFchZI/skxWFfJXqBI2bA2mBFBEgZA7EsD1oKiG+C8k08WNTotqwJwKXH5ibjGAS2odCkVrYy2TiTQeR1Y66mp9Mk7P3UJL00+pAuLGAMqIguNAn9m34Ezqa2vsJc8qeX6LGGXHlADu0b+SNfKqEEMml8fvs+yVgEYp1fA4f3ZLzBhAmYngFpRCocjm8jJ6ndlkRvY8KBTJ9NqIWmkDMPW/MYCmfuJzTxMDunADSoQhY1Wg7Gee23qc1RbeRsWMAVQABRFgwAUBAIUik1NUC8r+czn+1tjmDbZRexbruDGASqB43g0G0GjNUF1I2imxUZty1BgAjADDOJwN1kmOqV1UEYv/h6MjTjUA0wNwMc2/S3zmq4wAfebUGOfy57eOjXzmxxvjQBDvEdXPFzcGUDmOON0AUNVuAaAUIyufAkz8NwagnF8GbLBOoRRViQVRBMurZcARXIyFB5j+CsNOnl1O5N/Iw6nHqEaevvd2C5tPH9805rHVgPhf3Ham3SSASqM4BAw4OQEYQMl7Yi/eYYTKYwyg9feITP+bc9eaG5mp1hIgRjFw0GMGcMQYgFNQ7HdyL2Cb70VO5HdWtQH8ZehM/OHoprBHegEx/TwmATiF1vcSnvpX9jo1Bay2LqBUVRuAoLD2ozxhAIfMgSAmBSyzD6CoMs6yiI+ETsceGr3ZCykgbAzAYbT9PuGpf+FBIORIA1BUG1GWZr+CPhdvDAp/dMfpmDEAZzKkFEdxGFutYyjTBBQ+osXzt8dufsS1DUGL/XgECw8S/zIHgD04jIfSf19VjcAjg2+xuAraBEaBkOtm/52nB82hoM5GGk1Oi5jbrGP8XO00h2TaKKxBYBT3EAeG8BAWHiX+JXrAWaXAWdXNx1NPUiUc/Pf73jrE1eFvXty8z0WlwNBfvfHlg8YAXMLkl5xXCvxp6mkm1PVUAYPaAMK8Dv76xc1HgR6cTeRjb3y5F4/hx8O0/wFDk/9MyEn/uHb6nufZ7HspxhySQT8wBgQdHP0H8SAWHkcbQBA46pRm09m8LgPSh/A40f+4/207WAY6BYRQ1lGHmkD/x9700ogxAJdy5Z/oAkadMsP8SfprXi8DDn79/rcNsUw+9aPuPuAwzmLw4296KQxgDMDdJhACHDHDPJUZij2Xe08X3mXH1//o16IIyzaBAWDYiN8YwIpz5SlC9gxTSfFFD+fu7z+cvW8MbxLT4t+IzTWYwIEKm/WIFn8/HsdPFbHqHqLaBHaoCvYELBi6f+Dx2Lv/cXDp/fDmG3m08MKf/GF3FDgKVpCyo7zY9DMJoMDlJ+kCxig/4Y57GQR49xe/K78D3mPjf77v12OsAJ/84ZZKlQODn7j9VNgYgLdNoBLbUHdoA4hi864v/s+wx1JA5Bvv+41eVoj9P9gSBCYpL/G9d5xqp0rwU60oImU2gGjHbqJLblleEvONvBZiXJtAtMxGHcb7GANQMFXp46P0bBl71z98xzMn5Hzj/W8Pl+A9xc0xXyXAJABn7IxTMETh23h3s59SoCzKyb43n4wYA6gO2gD8qyB7hYrxzfe/Pf7bX/jOfuAA7iX2zQ/o2b8EKAhaQEdDJ5fnx1kZDKYEUPQAWLVyXzJqmiA3x1XR4jl45xeevwvowZ0MUgL2vrA1CIR8lp+6mjoUpaGuph6AVC5pDKAauDQsQgtZtYCPkuJrXDCAHiByVREpRl1YCow888FdEUqAgj2WgmBDB8lcChQlIaDNpcbyk8om0abTs/8t3i4DTAJQ7AWoXQX5JFDKBNAIGQXAbmAfS8MzH9gVu/OxyBAwbA7IgE+8sC0IPKiAzqb1jMVPobAoBdl8jmDjaiaTVwrvKYI3MfsALj7BHuCArxbqb4ZkTEygZNR3QebSQgoYWnMfB7kKv/VYxE17Awaf/WBPuCQG8P1th4G+YH0Hm9q7OfaLFyglO69/C8fHf0Qun0XBjk+99UTUGICHuPg4Xbaw9oKIH3JiACXF3wH+ICRPU6B3zf1ErmoCn4+44ay88LMf6hlkhfn497eF7HfUp2tzbrkuxGtzFzg/c45S0r1qO6lcinNTZwrJZqM2gbgpAdwv/B5gty1+rBqoXQu+ekjFKDm5aQishcB6SJ8H4LA2oyFtAmGWBoXqBY462ASi3/pQ7+AKC3/Afk89dmNORAmIAZQYif+bgt0kMnNMJMaDwKg2o34XJgGTAP6PvXONbes+z/hDkaJEkZJIkRSpm01HjmPLduwgw5IlvVi+5MvQxP6yrtiAxcM2ZGmGxcCAbmuBzEHSNI2vW+esTYE46ZABwYK6a4dmTtPITtslWS5KbEu26wtlUxYpUeLRXZZInp33PTo304prW6JE8v8DiON8Eo/I53mf933/R0n8EN7Z3fpTNiACwq5W4nK/OvmfGVReceSF8nrlFQTSkm4CkIEjFKFDfwEJueChF9/hLyGAyFITP4B2xQAk3Cbf+s0aLZX9rTb8rHBUIOxuQqAqBHuZA78d6kJqchD5YE1gPaorvLiYOouBiQRm2f3MA93/JAygMIQfUb9M+l8EZrE76wF7NVd/goV4tRd5xdWqpo7MqPqz5Yw+RDsI4MD1jOChQ7+MUGJYQkkgCuCeo49vlm5T+OZUxtRU1CLkaYKv0g+NC6mzVI2RL7jlqL+HjIdbjt6RHtN9sxEcFgawBEm8hO0kfPMe3eFTK77dDR15BpjuB9Ip5Bs2n8oVbAIs/ul4zvs4DOAnob/EEZjYduiXS+lPmt3z1uObbykSf/PXa9RUZjP+/40OmwMBdwhhdyOcjkpojF4dVgTYgxHlmm+qyt1YE7ibTIDbgUvD583vQ+LPScYrzz7Y3SkMYHFFT8J4kiqJFpNtTqDcS+Lnyq+TlkhsOQdyFsUEnA1kTFZDyoyQKVhWax1kBnRVDCG67dDbJJ6XWUCLx4G3Ht+y6+aF3xYB5Kf0484sMg/Cnkaq9iw0gqbvAxP9SIz1LvqBHJ4/+NvIDHRDio/1IjU1eG0a6gBs/Dk9+2CXJAwgD8R/gJz4aHfrFV+DBZWmPl8C5GksKew1QEWDYVJyRm0N0iNkBtftuTuOZnf0/CjzxP5F3PeveOvrWyT8jvzjr9vMQz0mWBXi3r66ohYa04rYe0cusbjS2TSWEk01yymdkElp75XmETQf4HRgxTDtbz/Y1SkMYF5Fbwz19GpvV4XkrLdW+8y4XvGXPA5fzvtnM8jSPYzSvVjN669mjmACHiwCh3/x9a07byj6X7VdZ6hXyaIPezQhMdzbJ8cTHK+XMCz+sKcp5/1TSqFkQIZA90AJxpoOuJU79u0vdB0RBnCLxL/PYrfER5uTRcPit9lNFXREnexnJ1Fo8L04avR7spCdYiPg+3ta2otuecOi9P6/eGLrnFXtH37VtmlW9NtNQz0Wjs/lt4gmOd5PFZSP3RYaQXeI2hbzPVnmFkOTg8pVwrg1HUhkBlo6eO4LN2wVhAH0fR858bHcxxXTOtSbBqYHqdqzCRQDfH9sBh4eGFp47sJuvC89gDwjvf3ENl+O6N9t85qqfUSrlkE3V3vuozWoQlLFHxhPoPDh+ySDIyOgq3GvhtFpyYCvFgwzOPLcF3UzEAbQ92/g+Gge6pU5VdGX+62VMT1b7TNjKGb4/u1uIyGwAQzn3QA6FANoxyx//+7ajVq1t5mHetVN3ONrUD9PfX1spAfTVO2LFr5/MgLeaLiVfxsYv4fUZDLHDGSTGXzni6ek0jMAFv71h3rlAaqE1mo/M9vbZ6dRkjwr70F3egMi4VpE48P5M4C/2dauCD8nlanVvokFoDExM0YTc4rD3BeXGJwO6lx++CoDZAr83ybYBFJTSe33k9MmKEZwpCQM4MqLany0afttuyp4Zwgosw71MJNi4Zc8f5I+CmJ1SwCnLyexkFQ6HZiaTsPtuiy1rdonaScqaV8frFKF7zB9uQfUiM89sIHAR2bgCtDswPh9Gb+znGQgGwPEg89/6VS0iAyARc+7e/OUuOxzhnrT/Vq1FxzPPoQfZP4OHpcTgdoqROMLKjT+GcnhCTidQ9jQ9oxpqBe4ZqiXQN9YDJlsBoIbHzLiQaIrYJ4bcBIYmkpebyvSAeCV57908nBBG8CVQ9o034j5jlqO+blDvYTa41uHeoInM69iQA5hZWMdpmbSiA2MYCGJhL2ID41xCvjD338bd9SPWYZ68dEY97aCW54b6FsSh3W9SEmKXnzugJDl2ROIwMHvfvlktGAMoPcQNtlY+GrfaDPFfJvzmqFecq6hnuBH2cfwZnYHx/LfW9WIzvNxjE1OL7gBEJQ0mvxJPHzfMepb6Xz8wqzwRJvA6cAMHzoaj/PVgI3gFcUIOpasAfT+q2WNxzG/3EcV3xrzZ1Ik/M+L+YI35R3498xjIDa2huGwl+HDs1ew0Hg9lVgXqcd73TGkM1k0hv8HTeGjECzoAJHNIOgOc8ulQYZL84L4aK8+OJTV9mD3C7dpBLYFEP5T5jWeM8Ti18neMOYLJuBRKv52HJe3cexXB39BhOs8OBlNcG+eD+5f00JJg38msazxvxAKvosFR8AnKBs8TZQKzM9LcAqLmVOYZgSbTnQsmgH0fm9W+DZEtDUeV/w6aHC8n06y8OdA0C3fjePZbfSyTONXNtUhUOuGNDaFznN9yBNsOKuXBREfGsXpS0kQ3tqTWLHsdTjsk8gPAl63VjeZzxjQjMAwAiMR7Nqz6URn3gwg9j2O+C/rj3d6qOKbB3vGCi89hjkQUKWnit8j32GZwjcHazmKE1SJSfwUx/PJxpUN9B54IHiud5B/vl0R/7LGnyJQ9yHyh6Cm0ouGah4cWo1g2JIIDlAi2NN+QlowA4j9C+/u98OGTVrFrwhfI/whNepnZ5CLgKP9m/J2rvYTYMek/p6qLgmfK78GVf6TFxP5Fr/2nsgEaP1IJkQmwO+HqHCmEAq8C3/dR3DYp5AvRHtQgeba5Twr0OgbjZER8DpWBiQAO/e2f3ZkHg2Ahe+d7fGftPT4dTnCn2OwJ/hQ/gNF9FvxkXLVIHGR6Knqk+A0qOpS/GbBGSymCejvKxpP8YpQw1vbpbxOwadcKSHkBzEnUI0gpM8Ioqnz5mcuDkPGrr2bP5Nu2wAu/zO2U9y32eBFGeAMUtW3Cv9qHJBzKr5gXHarMV9+hCq/ucdWXtVazCeoytOOn4TPAltKrGzyozlYAw0aRpJB0dVMlasPPsUMvDVdyr+vYGERVDk9iPhaaXOgn9M4P3hGaws6ZWDnvs2fdd6CAbDwLX+NxlELuFp4nWcIf46KL4Z66xXhb+WXMdQr12M+V3sj5pOY+LWU8XpciIR9ZtNio0oOj9M98NWM3T4Fb80pVHsukinwfy8IAn4GYbmvlZIBpQEyAd4aKEiQ0b5vC5nATRjA5YPc4/8YNnjpfL5rGWD3GFP9qV4gMwUTggnZzTH/5/IjNNQzC4eqJ03zzdWeBRMbGOb+uoCw3o8VsxnkpJhqzwX4aqhd6IbTmcK8IqBThdwWNNQ0g4gNR3FZ6sEsO/dv+fSw1QDmFv+jXPmtVZ9391NXuPKbEAwghDezD+OYvPWaoV51zlCPREGip2pPJlC4cKKh2QXfJ88IrLCxSWOT1CbQNadVoGTg933M/54/BHVVAbT672JDGBiL49zgGe2pw3bFBDo/1wAuHeAJPw/6Khu532emB2b7/Cx0xFDvfkX4j6Ab63OGeiQKM2q1H2EhFB9seJQIqD2gq9HiWBOPZgYW83OWpzgVBBQzcM2bGYgh4ergWpoR8JHic0ndBFYc2PopXWG7rviBJ6naV63gyM9Vf/ISkB6GAKAKTxGfp/kDqIcGV/v6WjIAS8znaj+oDvVKCX5y0esmM7huOmAzkCboajGDCiebwTwlA9EStIU2wO308IagbyQGhSOKAezIMYBL+/EobHiZxb8SsLuAzCQwcU4c2yWop/+5/DCOy1vMEZhEz+K3DvUmSfQc8wXcKlAy0AxhDjMYzzEDp1NCKPAbdWZQLuHWECawNrSBk8DHve9r24H2g9s6O3QD6NmPjQA+AdTKX14LTA9x5S91SPAkfOtQr9pFMf+6Q71o39Dc1V5ARkm/PzYCo1WwmgG/JIsZ8Lwg4PuEzOAWtgniQaMNDfdieEri7YBCh2IA7WYDeAfApsow7feF+Cnmc7XPbuGYbwz1aqji5wz1SPRa9bo5BGwE3jnNgJIUXc2rRTaB+sD/oqoyjt8dcZR4bXgDPo5pKcDms7H49/G6750yJ1DdVtLiZ7G/kf0ajsMc8x2IhOvUauXQq5UW8edvqCfQUkHO7zqdNq9Mr0LD445yKvDXdeLGCFYG7sLw1DBvBhR2sAFE9/G679GqZUCZCxgvwZ6/W16HN+SvoUteb3kmPtJQxztvI+Zn8jTUE/B60Z9z1oANINY/bE5cfPw4FHwP9YH35m4PBDQM5BXhZSkKhd2qAexFCoC35m5g4kJpPbl3XN6MY9hCBmCe5rPwOeZbv3RiqLeI60V1w1Ix58zFOHl4Gg2hDlQ4JeQiCHrClAAsBiDTxL+yGRj/LUqCY/JmrvgDstHfN9d7qb+nf+fG/NFJLDoCMmUyAkoGOVuXaF/K/DlxW9AY6oDTOQwzYitgRzqbUQ0gukft/x0ewOakE36lIPw/pl7fOJvvrybxk/D1yhIfHOGKPzU9gyWJgEzASAXWgSx/fhr1gffREDqW+8iyYLft4h54AaTsLrXvz04Xt/CThvAp5pP4LV8eVfhSwUzzBbySpe0MGfkcRsCtgW4EZoQBvGAYQKYIU24XaLj3VXTJ6+YQvrVqFCoCw9QDXl4n6kZwuiehtwYuVwItjUfhcfeAEQZgtADpseJa570q/zk+lO/TenwSPkX9nNN6xSV8gTHP4bZO/6xPR/v1lq4+8AEaQscpGZS2AVz47qwBVAPpURQDXPH/E1+dFb4998swSgOjweLe3wv4s1/ZHOBZgQYlPfrsCVdlApHmn1IqEAZQDAmgByvwYvYJvhIBr4e+ABwNCXL/c7EkktIYSgvRGqyOhOg8h77SPR1N0JUTwPKWn8Fbc7ZEDeD5okgAVPGp8uurIvUDr9KET67Pcb9kEfBsYGVzkAyBD3Sdiw3o34llShLw+06UngGcf76wE8AE3NgrfwNdWAuCon6kwc9xnx/F7ZeUV0pM9QWmWZBfmwXR94ONgFje/DMygRIzgO9ozwEU3gqwBxE8LT9NJsCCX9faSCshrc/nmJe7xxcIuD2klEiGQENgbgmI5S3/jTrfiVIyAO0x4EIU/26Mw80HQTbe1axVfRL+jfp8gYC+N2wCnqoK3QTs9qu4c8VrcLn6UeQYDwMpJnARQKSgxJ9l8fOEt7UlSOLnqn/q/JWbivsC0RJsWNXMJnAmmmAj8Hgu4c47/gMlgM8BlV0AflwY+/0gdrP4q1j8qyIhEDTki14ZxM0gEMxkMug8G2MTuKMliNToBEbHWjA4tA51vpNFHf9f+sr/STYwnALUvwK8xPlG9gVEEeH4dm/bchBnovHbPswjEKvCe9cs59bxTE8crsp+rL7zFRQph1/6ygc7jb8JaJhABGAj+DKWID+RH9n4WvZPvRTb7lu/AsSninuPTVzFfCAQa8K1rU14/8QFPkJ8Z+trne6qXgnFQyfJ6IcPf9CBWWwoIO599vUUAO/qSBghfw31+/M67BMINq5qQXxwWEuUuz765h8dQBHjKBjxP/P6o5DhrawoR6iuBucv9yOZml/xCwSxRIoHgpBBeLE0EAYgQ6a2hCu/NDqBy4kU5huBYEAaRYXTARkySoEyFA4RutR6XDTx//927u8mlSCO4+gX46MPJLahiR1ICTaA8XZgBRqoQDsw2gAdXHqQAm4B92GDQvBfRiChhCWrc87LTgWfzG92d9IS6OJYaQRIKYPdpZzNfJG2wOrtPZ1jBNjabv9LagN2ANMkg2a+3KxTF7ADGGTtuH+Ul+UqlQCHgIARIBvNfFHrCAAOAct2XQkQAAkAO4Cye9Y6AYBDwEqv+AIjQJOkv8evtKBJZxgBJkmusj8wEYDOKKMkF3v6RRPunkfDf/nlevlBTm+fzkrJ35YjAA+z8fBP1gSgY05uHvtJrlu6tgwz//1sfDlNJXqllHQQ4DUgIACAAAACAAgAIACAAAACAAgAIACAAAACAAgAIACAAIAAAAIACAAgAIAAAAIACAAgAIAAAAIACAAgAIAAAAIACAAgAIAAAAIACAAgAIAAAAIACAAgAIAAAAIACAAgAIAAAAIACAAgAIAAAAIACAAgAMA3iTcJ1I9n0GgAAAAASUVORK5CYII=;" vertex="1" parent="1">
          <mxGeometry x="47.5" y="35" width="95" height="95" as="geometry" />
        </mxCell>
        <mxCell id="waoizmoGo2lEUvjCZ8Yj-4" value="" style="endArrow=none;html=1;strokeWidth=2;" edge="1" parent="1">
          <mxGeometry width="50" height="50" relative="1" as="geometry">
            <mxPoint x="140" y="80" as="sourcePoint" />
            <mxPoint x="200" y="80" as="targetPoint" />
          </mxGeometry>
        </mxCell>
        <mxCell id="waoizmoGo2lEUvjCZ8Yj-5" value="" style="endArrow=none;html=1;strokeWidth=2;fontSize=14;" edge="1" parent="1">
          <mxGeometry width="50" height="50" relative="1" as="geometry">
            <mxPoint x="495" y="370" as="sourcePoint" />
            <mxPoint x="730" y="370" as="targetPoint" />
          </mxGeometry>
        </mxCell>
        <mxCell id="waoizmoGo2lEUvjCZ8Yj-6" value="Database" style="text;html=1;resizable=0;autosize=1;align=center;verticalAlign=middle;points=[];fillColor=none;strokeColor=none;rounded=0;fontSize=14;" vertex="1" parent="1">
          <mxGeometry x="685" y="290" width="80" height="20" as="geometry" />
        </mxCell>
      </root>
    </mxGraphModel>
  </diagram>
</mxfile>
